<mxfile host="app.diagrams.net" modified="2023-09-26T09:02:38.056Z" agent="Mozilla/5.0 (Windows NT 10.0; Win64; x64) AppleWebKit/537.36 (KHTML, like Gecko) Chrome/116.0.0.0 Safari/537.36" version="21.7.5" etag="BPUn5Q0o29XYkXOZN2hW" type="github">
  <diagram name="StrÃ¡nka-1" id="SiRq-9twxSpu9_jPWmGN">
    <mxGraphModel>
      <root>
        <mxCell id="0" />
        <mxCell id="1" parent="0" />
      </root>
    </mxGraphModel>
  </diagram>
</mxfile>
